<svg xmlns="http://www.w3.org/2000/svg" viewBox="0 0 640 480" role="img" aria-label="Cloisters courtyard">
  <rect width="640" height="480" fill="#d9e6df"/>
  <rect y="328" width="640" height="152" fill="#9fae8d"/>
  <path d="M72 108h496v242H72z" fill="#efe4d5"/>
  <path d="M112 154h416v196H112z" fill="#b8c9b7"/>
  <path d="M132 350V178h74v172M246 350V178h74v172M360 350V178h74v172M474 350V178h34v172" fill="#f7efe5"/>
  <path d="M132 178c0-30 16-54 37-54s37 24 37 54M246 178c0-30 16-54 37-54s37 24 37 54M360 178c0-30 16-54 37-54s37 24 37 54M474 178c0-30 16-54 37-54s37 24 37 54" fill="none" stroke="#f7efe5" stroke-width="24"/>
  <path d="M72 92h496v40H72z" fill="#b99f86"/>
  <path d="M166 388c38-70 88-104 154-104s116 34 154 104" fill="#597b53"/>
  <path d="M226 390c24-44 55-66 94-66s70 22 94 66" fill="#759766"/>
</svg>
