<svg xmlns="http://www.w3.org/2000/svg" viewBox="0 0 1600 1000" role="img" aria-label="Museum hall">
  <defs>
    <linearGradient id="sky" x1="0" x2="1" y1="0" y2="1">
      <stop offset="0" stop-color="#f6d4b8"/>
      <stop offset="0.45" stop-color="#a8453c"/>
      <stop offset="1" stop-color="#1c1b24"/>
    </linearGradient>
    <linearGradient id="floor" x1="0" x2="1" y1="0" y2="0">
      <stop offset="0" stop-color="#2b1718"/>
      <stop offset="0.5" stop-color="#7b3a32"/>
      <stop offset="1" stop-color="#211215"/>
    </linearGradient>
  </defs>
  <rect width="1600" height="1000" fill="url(#sky)"/>
  <rect y="640" width="1600" height="360" fill="url(#floor)"/>
  <path d="M0 650h1600v55H0z" fill="#ead4c7" opacity=".85"/>
  <path d="M220 645V230h1160v415" fill="#efe3d8"/>
  <path d="M280 645V295h1040v350" fill="#421b1d"/>
  <path d="M360 645V360h190v285M705 645V360h190v285M1050 645V360h190v285" fill="#f7eee7"/>
  <path d="M320 330h960l-80-90H400z" fill="#c62e35"/>
  <path d="M300 240h1000v55H300zM250 195h1100v45H250z" fill="#fff4ea"/>
  <g fill="#d23a40">
    <rect x="425" y="410" width="60" height="205"/>
    <rect x="770" y="410" width="60" height="205"/>
    <rect x="1115" y="410" width="60" height="205"/>
  </g>
  <g fill="#221111" opacity=".32">
    <ellipse cx="800" cy="780" rx="520" ry="80"/>
    <ellipse cx="455" cy="640" rx="95" ry="18"/>
    <ellipse cx="800" cy="640" rx="95" ry="18"/>
    <ellipse cx="1145" cy="640" rx="95" ry="18"/>
  </g>
</svg>
